# xmcd
#
# Track frame offsets:
#	150
#	11567
#	28700
#	43460
#	55255
#	74835
#	98927
#	108000
#	118365
#	134347
#	153450
#
# Disc length: 2247 seconds
#
# Revision: 0
# Processed by: cddbd v1.4PL0 Copyright (c) Steve Scherf et al.
# Submitted via: dBpowerAMP V4.0
#
DISCID=a108c50b
DTITLE=Doug Sahm - Hell of a Spell
DYEAR=1900
DGENRE=Blues
TTITLE0=Tunnel Vison 
TTITLE1=Ain't into Lettin' You Go
TTITLE2=All the Way to Nothing
TTITLE3=Hangin' on by a Thread 
TTITLE4=I'll Take Care of You
TTITLE5=The Things That I Used to Do
TTITLE6=I Don't Mind at All 
TTITLE7=Nothin' But the Blues
TTITLE8=Hell of a Spell
TTITLE9=Can't Fake It 
TTITLE10=Next Time You See Me 
EXTD=
EXTT0=
EXTT1=
EXTT2=
EXTT3=
EXTT4=
EXTT5=
EXTT6=
EXTT7=
EXTT8=
EXTT9=
EXTT10=
PLAYORDER=
